<svg width="26" height="29" viewBox="0 0 26 29" fill="none" xmlns="http://www.w3.org/2000/svg">
<path fill-rule="evenodd" clip-rule="evenodd" d="M20.89 4.99307H9.40039V0L25.7643 0V16.7624H20.89V4.99307Z" fill="#55B02E"/>
<path fill-rule="evenodd" clip-rule="evenodd" d="M11.9152 14.9287C11.1709 14.4193 10.2958 14.1474 9.40057 14.1474V9.1543C11.2598 9.1543 13.0773 9.71906 14.6233 10.7772C16.1692 11.8353 17.3741 13.3392 18.0856 15.0987C18.7971 16.8583 18.9832 18.7945 18.6205 20.6624C18.2578 22.5303 17.3625 24.2462 16.0478 25.5929C14.7331 26.9396 13.0581 27.8567 11.2345 28.2282C9.41099 28.5998 7.52085 28.4091 5.80312 27.6803C4.08539 26.9514 2.61722 25.7172 1.58427 24.1336C0.551327 22.5501 -3.54174e-06 20.6883 0 18.7838L4.87437 18.7838C4.87437 19.7008 5.13982 20.5972 5.63717 21.3596C6.13451 22.1221 6.84141 22.7164 7.66846 23.0673C8.49552 23.4182 9.40559 23.51 10.2836 23.3311C11.1616 23.1522 11.9681 22.7106 12.6011 22.0622C13.2341 21.4138 13.6652 20.5877 13.8398 19.6883C14.0144 18.7889 13.9248 17.8567 13.5822 17.0095C13.2397 16.1623 12.6595 15.4382 11.9152 14.9287Z" fill="#55B02E"/>
</svg>
